<?xml version="1.0" encoding="UTF-8" standalone="no"?>
<!DOCTYPE svg PUBLIC "-//W3C//DTD SVG 1.1//EN"
 "http://www.w3.org/Graphics/SVG/1.1/DTD/svg11.dtd">
<!-- Generated by graphviz version 2.42.3 (20191010.1750)
 -->
<!-- Title: %3 Pages: 1 -->
<svg width="921pt" height="692pt"
 viewBox="0.00 0.00 920.89 692.00" xmlns="http://www.w3.org/2000/svg" xmlns:xlink="http://www.w3.org/1999/xlink">
<g id="graph0" class="graph" transform="scale(1 1) rotate(0) translate(4 688)">
<title>%3</title>
<polygon fill="white" stroke="transparent" points="-4,4 -4,-688 916.89,-688 916.89,4 -4,4"/>
<!-- [root] aws_eip.elastic_ip -->
<g id="node1" class="node">
<title>[root] aws_eip.elastic_ip</title>
<polygon fill="none" stroke="black" points="516.69,-468 397.64,-468 397.64,-432 516.69,-432 516.69,-468"/>
<text text-anchor="middle" x="457.16" y="-445.8" font-family="Times,serif" font-size="14.00">aws_eip.elastic_ip</text>
</g>
<!-- [root] aws_instance.testec2 -->
<g id="node2" class="node">
<title>[root] aws_instance.testec2</title>
<polygon fill="none" stroke="black" points="554.67,-396 421.65,-396 421.65,-360 554.67,-360 554.67,-396"/>
<text text-anchor="middle" x="488.16" y="-373.8" font-family="Times,serif" font-size="14.00">aws_instance.testec2</text>
</g>
<!-- [root] aws_eip.elastic_ip&#45;&gt;[root] aws_instance.testec2 -->
<g id="edge1" class="edge">
<title>[root] aws_eip.elastic_ip&#45;&gt;[root] aws_instance.testec2</title>
<path fill="none" stroke="black" d="M464.83,-431.7C468.36,-423.73 472.62,-414.1 476.53,-405.26"/>
<polygon fill="black" stroke="black" points="479.74,-406.67 480.59,-396.1 473.34,-403.83 479.74,-406.67"/>
</g>
<!-- [root] aws_security_group.sec_group -->
<g id="node3" class="node">
<title>[root] aws_security_group.sec_group</title>
<polygon fill="none" stroke="black" points="416.95,-324 227.37,-324 227.37,-288 416.95,-288 416.95,-324"/>
<text text-anchor="middle" x="322.16" y="-301.8" font-family="Times,serif" font-size="14.00">aws_security_group.sec_group</text>
</g>
<!-- [root] aws_instance.testec2&#45;&gt;[root] aws_security_group.sec_group -->
<g id="edge2" class="edge">
<title>[root] aws_instance.testec2&#45;&gt;[root] aws_security_group.sec_group</title>
<path fill="none" stroke="black" d="M447.56,-359.88C424.76,-350.26 396.14,-338.19 371.99,-328.01"/>
<polygon fill="black" stroke="black" points="373.21,-324.73 362.64,-324.07 370.49,-331.18 373.21,-324.73"/>
</g>
<!-- [root] module.vpcmodule.output.subnetID -->
<g id="node7" class="node">
<title>[root] module.vpcmodule.output.subnetID</title>
<polygon fill="none" stroke="black" points="770.97,-324 559.36,-324 559.36,-288 776.97,-288 776.97,-318 770.97,-324"/>
<polyline fill="none" stroke="black" points="770.97,-324 770.97,-318 "/>
<polyline fill="none" stroke="black" points="776.97,-318 770.97,-318 "/>
<text text-anchor="middle" x="668.16" y="-301.8" font-family="Times,serif" font-size="14.00">module.vpcmodule.output.subnetID</text>
</g>
<!-- [root] aws_instance.testec2&#45;&gt;[root] module.vpcmodule.output.subnetID -->
<g id="edge3" class="edge">
<title>[root] aws_instance.testec2&#45;&gt;[root] module.vpcmodule.output.subnetID</title>
<path fill="none" stroke="black" d="M532.2,-359.88C557.13,-350.18 588.5,-337.98 614.83,-327.74"/>
<polygon fill="black" stroke="black" points="616.22,-330.95 624.27,-324.07 613.69,-324.43 616.22,-330.95"/>
</g>
<!-- [root] var.instanceImage -->
<g id="node15" class="node">
<title>[root] var.instanceImage</title>
<polygon fill="none" stroke="black" points="907.12,-324 795.2,-324 795.2,-288 913.12,-288 913.12,-318 907.12,-324"/>
<polyline fill="none" stroke="black" points="907.12,-324 907.12,-318 "/>
<polyline fill="none" stroke="black" points="913.12,-318 907.12,-318 "/>
<text text-anchor="middle" x="854.16" y="-301.8" font-family="Times,serif" font-size="14.00">var.instanceImage</text>
</g>
<!-- [root] aws_instance.testec2&#45;&gt;[root] var.instanceImage -->
<g id="edge4" class="edge">
<title>[root] aws_instance.testec2&#45;&gt;[root] var.instanceImage</title>
<path fill="none" stroke="black" d="M554.7,-366.52C613.01,-357.02 700.26,-342.07 785.41,-324.09"/>
<polygon fill="black" stroke="black" points="786.2,-327.5 795.25,-321.99 784.74,-320.65 786.2,-327.5"/>
</g>
<!-- [root] var.instancetype -->
<g id="node16" class="node">
<title>[root] var.instancetype</title>
<polygon fill="none" stroke="black" points="535.25,-324 435.08,-324 435.08,-288 541.25,-288 541.25,-318 535.25,-324"/>
<polyline fill="none" stroke="black" points="535.25,-324 535.25,-318 "/>
<polyline fill="none" stroke="black" points="541.25,-318 535.25,-318 "/>
<text text-anchor="middle" x="488.16" y="-301.8" font-family="Times,serif" font-size="14.00">var.instancetype</text>
</g>
<!-- [root] aws_instance.testec2&#45;&gt;[root] var.instancetype -->
<g id="edge5" class="edge">
<title>[root] aws_instance.testec2&#45;&gt;[root] var.instancetype</title>
<path fill="none" stroke="black" d="M488.16,-359.7C488.16,-351.98 488.16,-342.71 488.16,-334.11"/>
<polygon fill="black" stroke="black" points="491.66,-334.1 488.16,-324.1 484.66,-334.1 491.66,-334.1"/>
</g>
<!-- [root] module.vpcmodule.output.vpcID -->
<g id="node8" class="node">
<title>[root] module.vpcmodule.output.vpcID</title>
<polygon fill="none" stroke="black" points="423.13,-252 227.2,-252 227.2,-216 429.13,-216 429.13,-246 423.13,-252"/>
<polyline fill="none" stroke="black" points="423.13,-252 423.13,-246 "/>
<polyline fill="none" stroke="black" points="429.13,-246 423.13,-246 "/>
<text text-anchor="middle" x="328.16" y="-229.8" font-family="Times,serif" font-size="14.00">module.vpcmodule.output.vpcID</text>
</g>
<!-- [root] aws_security_group.sec_group&#45;&gt;[root] module.vpcmodule.output.vpcID -->
<g id="edge6" class="edge">
<title>[root] aws_security_group.sec_group&#45;&gt;[root] module.vpcmodule.output.vpcID</title>
<path fill="none" stroke="black" d="M323.65,-287.7C324.31,-279.98 325.1,-270.71 325.84,-262.11"/>
<polygon fill="black" stroke="black" points="329.33,-262.37 326.7,-252.1 322.36,-261.77 329.33,-262.37"/>
</g>
<!-- [root] module.vpcmodule.aws_internet_gateway.gate_way -->
<g id="node4" class="node">
<title>[root] module.vpcmodule.aws_internet_gateway.gate_way</title>
<polygon fill="none" stroke="black" points="384.27,-540 76.06,-540 76.06,-504 384.27,-504 384.27,-540"/>
<text text-anchor="middle" x="230.16" y="-517.8" font-family="Times,serif" font-size="14.00">module.vpcmodule.aws_internet_gateway.gate_way</text>
</g>
<!-- [root] module.vpcmodule.aws_vpc.testVPC -->
<g id="node6" class="node">
<title>[root] module.vpcmodule.aws_vpc.testVPC</title>
<polygon fill="none" stroke="black" points="441.53,-180 214.8,-180 214.8,-144 441.53,-144 441.53,-180"/>
<text text-anchor="middle" x="328.16" y="-157.8" font-family="Times,serif" font-size="14.00">module.vpcmodule.aws_vpc.testVPC</text>
</g>
<!-- [root] module.vpcmodule.aws_internet_gateway.gate_way&#45;&gt;[root] module.vpcmodule.aws_vpc.testVPC -->
<g id="edge9" class="edge">
<title>[root] module.vpcmodule.aws_internet_gateway.gate_way&#45;&gt;[root] module.vpcmodule.aws_vpc.testVPC</title>
<path fill="none" stroke="black" d="M223.89,-503.78C214.83,-477.32 199.16,-424.92 199.16,-379 199.16,-379 199.16,-379 199.16,-305 199.16,-264.55 193.17,-247.8 218.16,-216 228.84,-202.42 243.87,-192.11 259.39,-184.37"/>
<polygon fill="black" stroke="black" points="260.97,-187.49 268.56,-180.1 258.02,-181.15 260.97,-187.49"/>
</g>
<!-- [root] module.vpcmodule.aws_subnet.testSubnet -->
<g id="node5" class="node">
<title>[root] module.vpcmodule.aws_subnet.testSubnet</title>
<polygon fill="none" stroke="black" points="750.52,-252 495.81,-252 495.81,-216 750.52,-216 750.52,-252"/>
<text text-anchor="middle" x="623.16" y="-229.8" font-family="Times,serif" font-size="14.00">module.vpcmodule.aws_subnet.testSubnet</text>
</g>
<!-- [root] module.vpcmodule.aws_subnet.testSubnet&#45;&gt;[root] module.vpcmodule.aws_vpc.testVPC -->
<g id="edge10" class="edge">
<title>[root] module.vpcmodule.aws_subnet.testSubnet&#45;&gt;[root] module.vpcmodule.aws_vpc.testVPC</title>
<path fill="none" stroke="black" d="M551.38,-215.97C508.64,-205.83 454.28,-192.93 409.91,-182.4"/>
<polygon fill="black" stroke="black" points="410.56,-178.95 400.02,-180.05 408.94,-185.76 410.56,-178.95"/>
</g>
<!-- [root] module.vpcmodule.var.subnetTagValue -->
<g id="node9" class="node">
<title>[root] module.vpcmodule.var.subnetTagValue</title>
<polygon fill="none" stroke="black" points="735.69,-180 504.64,-180 504.64,-144 741.69,-144 741.69,-174 735.69,-180"/>
<polyline fill="none" stroke="black" points="735.69,-180 735.69,-174 "/>
<polyline fill="none" stroke="black" points="741.69,-174 735.69,-174 "/>
<text text-anchor="middle" x="623.16" y="-157.8" font-family="Times,serif" font-size="14.00">module.vpcmodule.var.subnetTagValue</text>
</g>
<!-- [root] module.vpcmodule.aws_subnet.testSubnet&#45;&gt;[root] module.vpcmodule.var.subnetTagValue -->
<g id="edge11" class="edge">
<title>[root] module.vpcmodule.aws_subnet.testSubnet&#45;&gt;[root] module.vpcmodule.var.subnetTagValue</title>
<path fill="none" stroke="black" d="M623.16,-215.7C623.16,-207.98 623.16,-198.71 623.16,-190.11"/>
<polygon fill="black" stroke="black" points="626.66,-190.1 623.16,-180.1 619.66,-190.1 626.66,-190.1"/>
</g>
<!-- [root] module.vpcmodule.var.vpcTagValue -->
<g id="node10" class="node">
<title>[root] module.vpcmodule.var.vpcTagValue</title>
<polygon fill="none" stroke="black" points="329.35,-108 114.97,-108 114.97,-72 335.35,-72 335.35,-102 329.35,-108"/>
<polyline fill="none" stroke="black" points="329.35,-108 329.35,-102 "/>
<polyline fill="none" stroke="black" points="335.35,-102 329.35,-102 "/>
<text text-anchor="middle" x="225.16" y="-85.8" font-family="Times,serif" font-size="14.00">module.vpcmodule.var.vpcTagValue</text>
</g>
<!-- [root] module.vpcmodule.aws_vpc.testVPC&#45;&gt;[root] module.vpcmodule.var.vpcTagValue -->
<g id="edge12" class="edge">
<title>[root] module.vpcmodule.aws_vpc.testVPC&#45;&gt;[root] module.vpcmodule.var.vpcTagValue</title>
<path fill="none" stroke="black" d="M302.97,-143.88C289.75,-134.89 273.37,-123.76 259.06,-114.03"/>
<polygon fill="black" stroke="black" points="260.7,-110.92 250.46,-108.19 256.76,-116.71 260.7,-110.92"/>
</g>
<!-- [root] provider.aws -->
<g id="node12" class="node">
<title>[root] provider.aws</title>
<polygon fill="none" stroke="black" points="432.16,-108 353.56,-90 432.16,-72 510.77,-90 432.16,-108"/>
<text text-anchor="middle" x="432.16" y="-85.8" font-family="Times,serif" font-size="14.00">provider.aws</text>
</g>
<!-- [root] module.vpcmodule.aws_vpc.testVPC&#45;&gt;[root] provider.aws -->
<g id="edge13" class="edge">
<title>[root] module.vpcmodule.aws_vpc.testVPC&#45;&gt;[root] provider.aws</title>
<path fill="none" stroke="black" d="M353.6,-143.88C369.13,-133.43 388.98,-120.07 404.83,-109.39"/>
<polygon fill="black" stroke="black" points="406.84,-112.26 413.18,-103.78 402.93,-106.46 406.84,-112.26"/>
</g>
<!-- [root] module.vpcmodule.output.subnetID&#45;&gt;[root] module.vpcmodule.aws_subnet.testSubnet -->
<g id="edge14" class="edge">
<title>[root] module.vpcmodule.output.subnetID&#45;&gt;[root] module.vpcmodule.aws_subnet.testSubnet</title>
<path fill="none" stroke="black" d="M657.04,-287.7C651.81,-279.56 645.46,-269.69 639.69,-260.7"/>
<polygon fill="black" stroke="black" points="642.51,-258.62 634.16,-252.1 636.62,-262.41 642.51,-258.62"/>
</g>
<!-- [root] module.vpcmodule.output.vpcID&#45;&gt;[root] module.vpcmodule.aws_vpc.testVPC -->
<g id="edge15" class="edge">
<title>[root] module.vpcmodule.output.vpcID&#45;&gt;[root] module.vpcmodule.aws_vpc.testVPC</title>
<path fill="none" stroke="black" d="M328.16,-215.7C328.16,-207.98 328.16,-198.71 328.16,-190.11"/>
<polygon fill="black" stroke="black" points="331.66,-190.1 328.16,-180.1 324.66,-190.1 331.66,-190.1"/>
</g>
<!-- [root] output.public_IP -->
<g id="node11" class="node">
<title>[root] output.public_IP</title>
<polygon fill="none" stroke="black" points="505.88,-540 402.44,-540 402.44,-504 511.88,-504 511.88,-534 505.88,-540"/>
<polyline fill="none" stroke="black" points="505.88,-540 505.88,-534 "/>
<polyline fill="none" stroke="black" points="511.88,-534 505.88,-534 "/>
<text text-anchor="middle" x="457.16" y="-517.8" font-family="Times,serif" font-size="14.00">output.public_IP</text>
</g>
<!-- [root] output.public_IP&#45;&gt;[root] aws_eip.elastic_ip -->
<g id="edge16" class="edge">
<title>[root] output.public_IP&#45;&gt;[root] aws_eip.elastic_ip</title>
<path fill="none" stroke="black" d="M457.16,-503.7C457.16,-495.98 457.16,-486.71 457.16,-478.11"/>
<polygon fill="black" stroke="black" points="460.66,-478.1 457.16,-468.1 453.66,-478.1 460.66,-478.1"/>
</g>
<!-- [root] var.Region -->
<g id="node13" class="node">
<title>[root] var.Region</title>
<polygon fill="none" stroke="black" points="360.72,-36 289.61,-36 289.61,0 366.72,0 366.72,-30 360.72,-36"/>
<polyline fill="none" stroke="black" points="360.72,-36 360.72,-30 "/>
<polyline fill="none" stroke="black" points="366.72,-30 360.72,-30 "/>
<text text-anchor="middle" x="328.16" y="-13.8" font-family="Times,serif" font-size="14.00">var.Region</text>
</g>
<!-- [root] provider.aws&#45;&gt;[root] var.Region -->
<g id="edge19" class="edge">
<title>[root] provider.aws&#45;&gt;[root] var.Region</title>
<path fill="none" stroke="black" d="M413.09,-76.16C398.91,-66.62 379.17,-53.33 362.3,-41.98"/>
<polygon fill="black" stroke="black" points="364.03,-38.92 353.78,-36.24 360.12,-44.73 364.03,-38.92"/>
</g>
<!-- [root] var.accessKey -->
<g id="node14" class="node">
<title>[root] var.accessKey</title>
<polygon fill="none" stroke="black" points="473.85,-36 384.48,-36 384.48,0 479.85,0 479.85,-30 473.85,-36"/>
<polyline fill="none" stroke="black" points="473.85,-36 473.85,-30 "/>
<polyline fill="none" stroke="black" points="479.85,-30 473.85,-30 "/>
<text text-anchor="middle" x="432.16" y="-13.8" font-family="Times,serif" font-size="14.00">var.accessKey</text>
</g>
<!-- [root] provider.aws&#45;&gt;[root] var.accessKey -->
<g id="edge20" class="edge">
<title>[root] provider.aws&#45;&gt;[root] var.accessKey</title>
<path fill="none" stroke="black" d="M432.16,-71.7C432.16,-63.98 432.16,-54.71 432.16,-46.11"/>
<polygon fill="black" stroke="black" points="435.66,-46.1 432.16,-36.1 428.66,-46.1 435.66,-46.1"/>
</g>
<!-- [root] var.secretKey -->
<g id="node17" class="node">
<title>[root] var.secretKey</title>
<polygon fill="none" stroke="black" points="584.24,-36 498.09,-36 498.09,0 590.24,0 590.24,-30 584.24,-36"/>
<polyline fill="none" stroke="black" points="584.24,-36 584.24,-30 "/>
<polyline fill="none" stroke="black" points="590.24,-30 584.24,-30 "/>
<text text-anchor="middle" x="544.16" y="-13.8" font-family="Times,serif" font-size="14.00">var.secretKey</text>
</g>
<!-- [root] provider.aws&#45;&gt;[root] var.secretKey -->
<g id="edge21" class="edge">
<title>[root] provider.aws&#45;&gt;[root] var.secretKey</title>
<path fill="none" stroke="black" d="M452.19,-76.49C467.72,-66.78 489.66,-53.06 508.22,-41.47"/>
<polygon fill="black" stroke="black" points="510.12,-44.41 516.74,-36.14 506.41,-38.47 510.12,-44.41"/>
</g>
<!-- [root] meta.count&#45;boundary (EachMode fixup) -->
<g id="node18" class="node">
<title>[root] meta.count&#45;boundary (EachMode fixup)</title>
<ellipse fill="none" stroke="black" cx="401.16" cy="-594" rx="174.79" ry="18"/>
<text text-anchor="middle" x="401.16" y="-589.8" font-family="Times,serif" font-size="14.00">[root] meta.count&#45;boundary (EachMode fixup)</text>
</g>
<!-- [root] meta.count&#45;boundary (EachMode fixup)&#45;&gt;[root] module.vpcmodule.aws_internet_gateway.gate_way -->
<g id="edge7" class="edge">
<title>[root] meta.count&#45;boundary (EachMode fixup)&#45;&gt;[root] module.vpcmodule.aws_internet_gateway.gate_way</title>
<path fill="none" stroke="black" d="M360.64,-576.41C336.91,-566.7 306.71,-554.33 281.35,-543.95"/>
<polygon fill="black" stroke="black" points="282.46,-540.63 271.88,-540.08 279.81,-547.11 282.46,-540.63"/>
</g>
<!-- [root] meta.count&#45;boundary (EachMode fixup)&#45;&gt;[root] output.public_IP -->
<g id="edge8" class="edge">
<title>[root] meta.count&#45;boundary (EachMode fixup)&#45;&gt;[root] output.public_IP</title>
<path fill="none" stroke="black" d="M415.01,-575.7C421.65,-567.39 429.74,-557.28 437.05,-548.14"/>
<polygon fill="black" stroke="black" points="439.97,-550.1 443.48,-540.1 434.5,-545.73 439.97,-550.1"/>
</g>
<!-- [root] provider.aws (close) -->
<g id="node19" class="node">
<title>[root] provider.aws (close)</title>
<ellipse fill="none" stroke="black" cx="104.16" cy="-594" rx="104.33" ry="18"/>
<text text-anchor="middle" x="104.16" y="-589.8" font-family="Times,serif" font-size="14.00">[root] provider.aws (close)</text>
</g>
<!-- [root] provider.aws (close)&#45;&gt;[root] aws_eip.elastic_ip -->
<g id="edge17" class="edge">
<title>[root] provider.aws (close)&#45;&gt;[root] aws_eip.elastic_ip</title>
<path fill="none" stroke="black" d="M87.5,-576.19C70.39,-556.89 48.67,-525.17 67.16,-504 87.87,-480.29 280.91,-463.25 387.4,-455.56"/>
<polygon fill="black" stroke="black" points="387.7,-459.05 397.43,-454.85 387.21,-452.07 387.7,-459.05"/>
</g>
<!-- [root] provider.aws (close)&#45;&gt;[root] module.vpcmodule.aws_internet_gateway.gate_way -->
<g id="edge18" class="edge">
<title>[root] provider.aws (close)&#45;&gt;[root] module.vpcmodule.aws_internet_gateway.gate_way</title>
<path fill="none" stroke="black" d="M133.71,-576.59C150.71,-567.14 172.29,-555.15 190.73,-544.91"/>
<polygon fill="black" stroke="black" points="192.45,-547.96 199.49,-540.04 189.05,-541.84 192.45,-547.96"/>
</g>
<!-- [root] root -->
<g id="node20" class="node">
<title>[root] root</title>
<ellipse fill="none" stroke="black" cx="252.16" cy="-666" rx="46.9" ry="18"/>
<text text-anchor="middle" x="252.16" y="-661.8" font-family="Times,serif" font-size="14.00">[root] root</text>
</g>
<!-- [root] root&#45;&gt;[root] meta.count&#45;boundary (EachMode fixup) -->
<g id="edge22" class="edge">
<title>[root] root&#45;&gt;[root] meta.count&#45;boundary (EachMode fixup)</title>
<path fill="none" stroke="black" d="M280.54,-651.67C301.95,-641.61 331.75,-627.61 356.37,-616.05"/>
<polygon fill="black" stroke="black" points="357.96,-619.17 365.52,-611.75 354.98,-612.83 357.96,-619.17"/>
</g>
<!-- [root] root&#45;&gt;[root] provider.aws (close) -->
<g id="edge23" class="edge">
<title>[root] root&#45;&gt;[root] provider.aws (close)</title>
<path fill="none" stroke="black" d="M223.63,-651.5C201.95,-641.25 171.78,-626.98 147.18,-615.35"/>
<polygon fill="black" stroke="black" points="148.6,-612.14 138.06,-611.03 145.6,-618.47 148.6,-612.14"/>
</g>
</g>
</svg>
